<svg version="1.2" baseProfile="tiny-ps" xmlns="http://www.w3.org/2000/svg" viewBox="0 0 399 398" width="auto" height="auto">
	<title>03-013__10_-ai</title>
	<style>
		tspan { white-space:pre }
		.shp0 { fill: #1159b9 }
		.shp1 { fill: #2372dc }
		.shp2 { fill: #595b60 }
		.shp3 { fill: #85878b }
	</style>
	<g id="Layer 1">
		<g id="&lt;Group&gt;">
			<g id="&lt;Group&gt;">
				<g id="&lt;Group&gt;">
					<g id="&lt;Group&gt;">
						<path id="&lt;Path&gt;" class="shp0" d="M133.55 160.81L178.33 227.57L114.54 345.17C100.32 371.4 72.88 387.73 43.05 387.73L2.16 387.73L133.55 160.81Z" />
						<path id="&lt;Path&gt;" class="shp1" d="M116.71 22.45L213.5 162.72L178.33 227.57L133.55 160.81L22.65 2.85L79.39 2.85C94.29 2.85 108.25 10.18 116.71 22.45Z" />
					</g>
					<g id="&lt;Group&gt;">
						<path id="&lt;Path&gt;" class="shp2" d="M265.66 238.59L220.88 171.84L284.67 54.23C298.89 28.01 326.33 11.68 356.16 11.68L397.05 11.68L265.66 238.59Z" />
						<path id="&lt;Path&gt;" class="shp3" d="M282.5 376.96L185.71 236.69L220.88 171.84L265.66 238.59L376.56 396.55L319.82 396.55C304.92 396.55 290.96 389.23 282.5 376.96Z" />
					</g>
				</g>
			</g>
		</g>
	</g>
</svg>
